<svg width="24" height="24" viewBox="0 0 24 24" fill="none" xmlns="http://www.w3.org/2000/svg">
<g clip-path="url(#clip0_211_1621)">
<path d="M14 19.7635H0.375V2.25L21.1023 2.25V12.75" stroke="#838587" stroke-width="2" stroke-linecap="square"/>
<path fill-rule="evenodd" clip-rule="evenodd" d="M5.72724 7.89531C6.17911 7.89531 6.54542 7.52776 6.54542 7.07436C6.54542 6.62097 6.17911 6.25342 5.72724 6.25342C5.27537 6.25342 4.90906 6.62097 4.90906 7.07436C4.90906 7.52776 5.27537 7.89531 5.72724 7.89531Z" fill="#838587" stroke="#838587" stroke-width="3" stroke-linecap="round" stroke-linejoin="round"/>
<path fill-rule="evenodd" clip-rule="evenodd" d="M8.72723 13.3682L5.99996 11.179L0.54541 16.652V19.9358H14.5208C14.7023 17.4962 16.0507 15.3816 18.0097 14.1483L12 9.53711L8.72723 13.3682Z" fill="#838587"/>
<path d="M5.99996 11.179L6.62594 10.3992L5.9256 9.837L5.29166 10.4731L5.99996 11.179ZM8.72723 13.3682L8.10125 14.148L8.8576 14.7552L9.48757 14.0177L8.72723 13.3682ZM0.54541 16.652L-0.162888 15.9461L-0.45459 16.2387V16.652H0.54541ZM0.54541 19.9358H-0.45459V20.9358H0.54541V19.9358ZM14.5208 19.9358V20.9358H15.4492L15.5181 20.0099L14.5208 19.9358ZM18.0097 14.1483L18.5425 14.9946L19.758 14.2294L18.6185 13.355L18.0097 14.1483ZM12 9.53711L12.6087 8.74374L11.8559 8.16614L11.2396 8.88758L12 9.53711ZM5.37398 11.9588L8.10125 14.148L9.35321 12.5884L6.62594 10.3992L5.37398 11.9588ZM1.25371 17.3579L6.70825 11.8849L5.29166 10.4731L-0.162888 15.9461L1.25371 17.3579ZM1.54541 19.9358V16.652H-0.45459V19.9358H1.54541ZM14.5208 18.9358H0.54541V20.9358H14.5208V18.9358ZM15.5181 20.0099C15.6751 17.8983 16.8422 16.065 18.5425 14.9946L17.477 13.3021C15.2592 14.6983 13.7294 17.0942 13.5236 19.8616L15.5181 20.0099ZM11.3912 10.3305L17.401 14.9417L18.6185 13.355L12.6087 8.74374L11.3912 10.3305ZM9.48757 14.0177L12.7603 10.1866L11.2396 8.88758L7.96689 12.7187L9.48757 14.0177Z" fill="#838587"/>
<path d="M20.5 16V22" stroke="#838587" stroke-width="2"/>
<path d="M23.5 19L20.5 16L17.5 19" stroke="#838587" stroke-width="2"/>
</g>
<defs>
<clipPath id="clip0_211_1621">
<rect width="24" height="24" fill="white"/>
</clipPath>
</defs>
</svg>
